<svg width="24" height="24" viewBox="0 0 24 24" fill="none" xmlns="http://www.w3.org/2000/svg">
<path opacity="0.994" fill-rule="evenodd" clip-rule="evenodd" d="M9.86719 0C12.1155 0 14.3642 0 16.6125 0C16.6125 2.26189 16.6125 4.52374 16.6125 6.78563C15.6104 5.79605 14.6082 4.8065 13.606 3.81692C12.3714 2.58826 11.0864 1.23884 9.86719 0Z" fill="#454B54"/>
<path opacity="0.987" fill-rule="evenodd" clip-rule="evenodd" d="M9.86729 0C11.0865 1.23884 12.2945 2.51115 13.529 3.73981L13.6061 3.81692C13.6061 5.82176 13.6061 7.82661 13.6061 9.83146C12.36 11.0524 11.0495 12.3247 9.82874 13.5713C9.80292 12.3375 9.85457 11.0652 9.82875 9.83146C9.81603 6.54783 9.82875 3.27068 9.86729 0Z" fill="#5C6470"/>
<path opacity="0.987" fill-rule="evenodd" clip-rule="evenodd" d="M16.6123 0C18.8976 2.23324 21.1718 4.4951 23.4347 6.78563C21.1606 6.78563 18.8864 6.78563 16.6123 6.78563C16.6123 4.52374 16.6123 2.26189 16.6123 0Z" fill="#29313D"/>
<path opacity="0.987" fill-rule="evenodd" clip-rule="evenodd" d="M16.6133 6.78516C18.8874 6.78516 21.1616 6.78516 23.4357 6.78516C23.4484 9.05356 23.4357 11.3154 23.3972 13.5708C22.1618 12.2966 20.9025 11.05 19.6198 9.83098C18.6176 8.81572 17.6154 7.80042 16.6133 6.78516Z" fill="#454B54"/>
<path opacity="0.988" fill-rule="evenodd" clip-rule="evenodd" d="M9.82893 9.83203C9.82893 11.0786 9.82893 12.3253 9.82893 13.5718C11.0496 12.3253 12.3602 11.0529 13.6063 9.83203C15.6107 9.83203 17.615 9.83203 19.6193 9.83203C20.9021 11.051 22.1613 12.2976 23.3967 13.5718C20.1331 13.5718 16.8699 13.5718 13.6063 13.5718C13.6063 16.8618 13.6063 20.1519 13.6063 23.4419C9.07075 23.4419 4.53557 23.4419 0 23.4419C0 18.9052 0 14.3687 0 9.83203C3.27631 9.83203 6.55262 9.83203 9.82893 9.83203ZM9.82893 13.5718C9.82893 15.6024 9.82893 17.6329 9.82893 19.6635C7.79877 19.6699 5.769 19.6635 3.73885 19.6442C3.77739 17.6229 3.79011 15.5987 3.77739 13.5718C5.79444 13.5718 7.81188 13.5718 9.82893 13.5718Z" fill="#737D8C"/>
</svg>
