<svg width="204" height="24" viewBox="0 0 204 24" fill="none" xmlns="http://www.w3.org/2000/svg">
<path opacity="0.994" fill-rule="evenodd" clip-rule="evenodd" d="M9.86719 0C12.1155 0 14.3642 0 16.6125 0C16.6125 2.26189 16.6125 4.52374 16.6125 6.78563C15.6104 5.79605 14.6082 4.8065 13.606 3.81692C12.3714 2.58826 11.0864 1.23884 9.86719 0Z" fill="#454B54"/>
<path opacity="0.987" fill-rule="evenodd" clip-rule="evenodd" d="M9.86729 0C11.0865 1.23884 12.2945 2.51115 13.529 3.73981L13.6061 3.81692C13.6061 5.82176 13.6061 7.82661 13.6061 9.83146C12.36 11.0524 11.0495 12.3247 9.82874 13.5713C9.80292 12.3375 9.85457 11.0652 9.82875 9.83146C9.81603 6.54783 9.82875 3.27068 9.86729 0Z" fill="#5C6470"/>
<path opacity="0.987" fill-rule="evenodd" clip-rule="evenodd" d="M16.6123 0C18.8976 2.23324 21.1718 4.4951 23.4347 6.78563C21.1606 6.78563 18.8864 6.78563 16.6123 6.78563C16.6123 4.52374 16.6123 2.26189 16.6123 0Z" fill="#29313D"/>
<path opacity="0.987" fill-rule="evenodd" clip-rule="evenodd" d="M16.6133 6.78516C18.8874 6.78516 21.1616 6.78516 23.4357 6.78516C23.4484 9.05356 23.4357 11.3154 23.3972 13.5708C22.1618 12.2966 20.9025 11.05 19.6198 9.83098C18.6176 8.81572 17.6154 7.80042 16.6133 6.78516Z" fill="#454B54"/>
<path opacity="0.988" fill-rule="evenodd" clip-rule="evenodd" d="M9.82893 9.83203C9.82893 11.0786 9.82893 12.3253 9.82893 13.5718C11.0496 12.3253 12.3602 11.0529 13.6063 9.83203C15.6107 9.83203 17.615 9.83203 19.6193 9.83203C20.9021 11.051 22.1613 12.2976 23.3967 13.5718C20.1331 13.5718 16.8699 13.5718 13.6063 13.5718C13.6063 16.8618 13.6063 20.1519 13.6063 23.4419C9.07075 23.4419 4.53557 23.4419 0 23.4419C0 18.9052 0 14.3687 0 9.83203C3.27631 9.83203 6.55262 9.83203 9.82893 9.83203ZM9.82893 13.5718C9.82893 15.6024 9.82893 17.6329 9.82893 19.6635C7.79877 19.6699 5.769 19.6635 3.73885 19.6442C3.77739 17.6229 3.79011 15.5987 3.77739 13.5718C5.79444 13.5718 7.81188 13.5718 9.82893 13.5718Z" fill="#737D8C"/>
<path opacity="0.983" fill-rule="evenodd" clip-rule="evenodd" d="M72.7235 2.53335C76.6336 2.3956 79.4853 4.04544 81.2785 7.48281C82.0387 9.2772 82.2672 11.1358 81.9641 13.0584C77.7114 13.0783 73.4587 13.0982 69.2061 13.118C69.3573 14.4353 70.033 15.3697 71.2331 15.9207C72.0729 16.263 72.9472 16.4318 73.8562 16.4276C75.7713 16.4407 77.5796 16.0132 79.2813 15.1455C79.5098 14.9965 79.7384 14.8474 79.9669 14.6983C80.0166 16.229 80.0066 17.7598 79.9371 19.29C78.3958 20.2023 76.7265 20.7092 74.9293 20.8106C72.8692 21.0276 70.882 20.7498 68.9676 19.9757C65.6241 18.2756 63.9747 15.5325 64.0194 11.7465C64.0394 7.39014 66.0862 4.46817 70.16 2.98059C71.0097 2.75286 71.8642 2.60378 72.7235 2.53335ZM72.9023 6.88649C74.3648 6.78691 75.5472 7.30374 76.4495 8.43693C76.6931 8.81994 76.8223 9.23737 76.837 9.6892C74.3133 9.6892 71.7895 9.6892 69.2657 9.6892C69.3315 8.93151 69.6693 8.32523 70.2792 7.87042C71.0675 7.29968 71.9419 6.97171 72.9023 6.88649Z" fill="#2D3C53"/>
<path opacity="0.984" fill-rule="evenodd" clip-rule="evenodd" d="M101.579 2.53497C105.608 2.39716 108.5 4.12649 110.253 7.72296C110.919 9.45539 111.128 11.2444 110.879 13.0898C106.626 13.0898 102.373 13.0898 98.1209 13.0898C98.2538 14.5455 99.0086 15.5294 100.386 16.0416C102.738 16.6201 105.043 16.4608 107.302 15.5646C107.843 15.329 108.349 15.041 108.822 14.6999C108.872 16.2307 108.862 17.7614 108.792 19.2916C107.586 20.0435 106.275 20.5105 104.858 20.6929C103.204 20.9088 101.555 20.8891 99.9094 20.6333C96.0611 19.7853 93.7659 17.4299 93.0237 13.5669C92.6183 11.1452 92.9956 8.85931 94.1564 6.70922C95.9288 4.08803 98.4029 2.69658 101.579 2.53497ZM101.758 6.88811C103.035 6.82019 104.137 7.21776 105.066 8.08075C105.474 8.53914 105.683 9.07583 105.692 9.69082C103.168 9.71068 100.644 9.69082 98.1209 9.63119C98.4059 8.42173 99.1409 7.6167 100.327 7.21609C100.801 7.05592 101.278 6.94661 101.758 6.88811Z" fill="#2D3C53"/>
<path opacity="0.984" fill-rule="evenodd" clip-rule="evenodd" d="M47.5656 2.5957C47.598 2.59928 47.6179 2.61914 47.6252 2.65534C45.5692 5.53658 43.5025 8.40887 41.4251 11.2722C43.6864 14.4686 45.9717 17.6486 48.281 20.8133C46.3137 20.8532 44.3463 20.8532 42.379 20.8133C41.0376 18.9546 39.6962 17.0964 38.3548 15.2377C37.0135 17.0964 35.6721 18.9546 34.3307 20.8133C32.3829 20.8628 30.4355 20.8532 28.4883 20.7835C30.762 17.6045 33.0473 14.4343 35.3442 11.2722C33.2722 8.39927 31.1856 5.53694 29.0844 2.68515C31.072 2.63548 33.0592 2.64538 35.0461 2.71497C36.1375 4.27369 37.2404 5.82412 38.3548 7.36627C39.4776 5.80588 40.6004 4.24554 41.7232 2.68515C43.6808 2.67513 45.6283 2.64532 47.5656 2.5957Z" fill="#2D3C53"/>
<path opacity="0.982" fill-rule="evenodd" clip-rule="evenodd" d="M56.5083 2.59345C58.1196 2.52147 59.6696 2.78982 61.1584 3.39848C61.5954 3.61691 62.0128 3.8654 62.4103 4.14388C62.4898 5.81358 62.4898 7.48328 62.4103 9.15297C60.8015 7.71143 58.9136 7.10515 56.7468 7.3342C54.2141 7.71065 52.8429 9.17164 52.6332 11.7172C52.7707 14.0313 53.9631 15.4722 56.2102 16.0405C58.5635 16.4537 60.6401 15.8872 62.4402 14.341C62.4799 15.991 62.4799 17.6404 62.4402 19.2904C61.19 20.1974 59.789 20.7043 58.2372 20.811C54.7584 21.1957 51.847 20.1122 49.5033 17.5611C47.934 15.5938 47.2783 13.3477 47.536 10.8227C47.9272 7.53027 49.5866 5.11517 52.514 3.57738C53.7902 2.99483 55.1217 2.66686 56.5083 2.59345Z" fill="#2D3C53"/>
<path opacity="0.988" fill-rule="evenodd" clip-rule="evenodd" d="M83.6934 2.5957C85.3626 2.5957 87.0319 2.5957 88.7012 2.5957C88.7012 7.16751 88.7012 11.7393 88.7012 16.3111C89.9537 16.2914 91.2057 16.3111 92.457 16.3707C93.1009 18.0977 94.1442 19.5288 95.5869 20.6642C95.6155 20.7209 95.6256 20.7805 95.6167 20.8431C91.6421 20.8431 87.668 20.8431 83.6934 20.8431C83.6934 14.7606 83.6934 8.67817 83.6934 2.5957Z" fill="#2D3C53"/>
<path opacity="0.983" fill-rule="evenodd" clip-rule="evenodd" d="M112.428 2.59358C115.369 2.58362 118.31 2.59358 121.251 2.6234C123.883 2.88065 125.761 4.20251 126.885 6.58893C127.649 8.76508 127.371 10.7926 126.05 12.6714C125.762 12.9596 125.474 13.2479 125.186 13.5361C124.868 13.7348 124.55 13.9336 124.232 14.1324C125.742 16.3584 127.253 18.5851 128.763 20.8112C126.835 20.8511 124.907 20.8511 122.98 20.8112C121.758 18.9524 120.536 17.0943 119.313 15.2356C118.713 15.1765 118.106 15.1569 117.495 15.1759C117.495 17.0645 117.495 18.9524 117.495 20.841C115.806 20.841 114.117 20.841 112.428 20.841C112.428 14.7585 112.428 8.67605 112.428 2.59358ZM117.495 7.18525C118.731 7.15752 119.963 7.18733 121.191 7.27469C121.944 7.64125 122.322 8.24753 122.324 9.09347C122.28 10.3002 121.664 10.986 120.476 11.1508C119.483 11.1806 118.489 11.1906 117.495 11.1806C117.495 9.84883 117.495 8.51701 117.495 7.18525Z" fill="#2D3C53"/>
<path opacity="0.984" fill-rule="evenodd" clip-rule="evenodd" d="M136.513 2.59378C138.897 2.46998 140.835 3.32469 142.326 5.15796C142.356 4.42275 142.366 3.68731 142.356 2.95157C144.104 2.95157 145.854 2.95157 147.602 2.95157C147.602 8.85514 147.602 14.7587 147.602 20.6623C145.854 20.6623 144.104 20.6623 142.356 20.6623C142.366 19.9664 142.356 19.2705 142.326 18.5752C141.341 19.8185 140.059 20.5639 138.481 20.8114C135.407 21.1054 132.793 20.1614 130.641 17.9788C128.851 15.7468 128.155 13.2024 128.555 10.3459C129.38 5.87211 132.033 3.28807 136.513 2.59378ZM137.825 7.36434C139.735 7.33023 141.175 8.12531 142.147 9.74962C143.082 12.1042 142.516 14.0025 140.448 15.4445C138.345 16.4541 136.468 16.1458 134.814 14.5202C133.47 12.7216 133.43 10.893 134.695 9.03404C135.53 8.07516 136.573 7.51861 137.825 7.36434Z" fill="#2D3C53"/>
<path opacity="0.985" fill-rule="evenodd" clip-rule="evenodd" d="M175.86 2.59329C179.735 2.40927 182.765 3.90007 184.952 7.06569C186.661 10.0346 186.721 13.0361 185.131 16.0701C183.426 18.8275 180.952 20.4078 177.708 20.8109C173.704 21.0792 170.594 19.5586 168.378 16.249C166.772 13.2775 166.752 10.2959 168.319 7.30422C170.074 4.53252 172.587 2.96223 175.86 2.59329ZM176.218 7.30422C178.474 7.22426 180.034 8.21814 180.898 10.2858C181.533 12.8544 180.669 14.7129 178.304 15.8614C176.105 16.5257 174.326 15.9395 172.969 14.1023C171.856 11.9684 172.144 10.0502 173.833 8.34778C174.54 7.78545 175.334 7.43762 176.218 7.30422Z" fill="#2D3C53"/>
<path opacity="0.986" fill-rule="evenodd" clip-rule="evenodd" d="M187.725 2.59358C190.745 2.58362 193.766 2.59358 196.786 2.6234C199.39 2.97606 201.209 4.3575 202.241 6.76782C203.041 9.32687 202.495 11.5432 200.602 13.4168C200.244 13.6553 199.886 13.8939 199.529 14.1324C201.026 16.3435 202.517 18.5601 204 20.7814C202.073 20.8607 200.145 20.8607 198.217 20.7814C197.015 18.9328 195.813 17.0842 194.61 15.2356C193.989 15.1765 193.363 15.1569 192.732 15.1759C192.732 17.0645 192.732 18.9524 192.732 20.841C191.063 20.841 189.394 20.841 187.725 20.841C187.725 14.7585 187.725 8.67605 187.725 2.59358ZM192.732 7.18525C193.925 7.17529 195.117 7.18525 196.309 7.21506C196.965 7.43296 197.372 7.8802 197.532 8.55678C197.665 9.27565 197.526 9.9316 197.114 10.5246C196.832 10.83 196.484 11.0189 196.071 11.0911C194.964 11.1015 193.861 11.1313 192.762 11.1806C192.732 9.84895 192.722 8.51719 192.732 7.18525Z" fill="#2D3C53"/>
<path opacity="0.98" fill-rule="evenodd" clip-rule="evenodd" d="M148.973 2.6543C154.636 2.6543 160.3 2.6543 165.963 2.6543C165.963 4.46312 165.963 6.27199 165.963 8.08081C164.036 8.08081 162.108 8.08081 160.181 8.08081C160.181 12.3345 160.181 16.5885 160.181 20.8421C158.372 20.8421 156.564 20.8421 154.755 20.8421C154.755 16.5885 154.755 12.3345 154.755 8.08081C152.828 8.08081 150.9 8.08081 148.973 8.08081C148.973 6.27199 148.973 4.46312 148.973 2.6543Z" fill="#2D3C53"/>
</svg>
